<?xml version="1.0" encoding="utf-8"?>
<!-- Generator: Adobe Illustrator 23.0.3, SVG Export Plug-In . SVG Version: 6.00 Build 0)  -->
<svg version="1.1" id="Layer_1" xmlns="http://www.w3.org/2000/svg" xmlns:xlink="http://www.w3.org/1999/xlink" x="0px" y="0px"
	 width="131px" height="158px" viewBox="0 0 131 158" style="enable-background:new 0 0 131 158;" xml:space="preserve">
<style type="text/css">
	.st0{fill:none;stroke:#FFFFFF;stroke-width:4;stroke-miterlimit:10;}
	.st1{fill:none;}
	.st2{fill:#FFFFFF;}
</style>
<circle class="st0" cx="112.4" cy="48.7" r="10.7"/>
<g>
	<path class="st1" d="M66.8,117.8c10.9,7.4,21.6,13.2,30.8,16.6c10.9,4.1,16.2,3.5,17.6,1.6c3.3-4.6-9.2-23.2-36.9-43.1
		c-1.7-1.2-3.3-2.4-5-3.5c-1.2,0.3-2.3,0.5-3.5,0.7C69.4,100,68.4,109.4,66.8,117.8z"/>
	<path class="st1" d="M56.6,91.3c-9,0-17.5-1.6-24.9-4.8c6.1,7.9,16.4,17.9,30.9,28.3c0.2,0.1,0.3,0.2,0.5,0.3
		c1.4-7.4,2.2-15.7,2.5-24.4C62.5,91.1,59.5,91.3,56.6,91.3z"/>
	<path class="st1" d="M44.7,69.4c6.4,2.4,13.5,5.9,20.9,10.3c0-0.3,0-0.5,0-0.8c-0.4-18.2-3.2-35.1-7.7-47.8
		C57,28.5,56,26.2,55,24.2C45,26,36,29.7,29.1,34.6c-2.5,9.3-4,20.5-4.4,32.6C28.6,65.2,35.4,65.9,44.7,69.4z"/>
	<path class="st1" d="M14.3,61.6c0.6,4.6,2.8,8.7,6,12.3c0-12.7,1.2-24.6,3.4-34.9C16.8,45.6,13.2,53.6,14.3,61.6z"/>
	<path class="st1" d="M25.6,71.7c-1,1.4-0.5,4.1,1.4,7.7c9.6,6.1,23.6,8.9,38.6,7.1c0-0.7,0-1.3,0-2c-16.1-9.8-29-14.3-35.6-14.3
		C27.8,70.3,26.3,70.8,25.6,71.7z"/>
	<path class="st1" d="M43.6,12.7c0,0-0.1,0-0.1,0c-4.4,0.1-9,5.9-12.5,15.8c6.4-3.8,13.9-6.5,21.9-8.1
		C49.9,15.4,46.6,12.7,43.6,12.7z"/>
	<path class="st1" d="M69.7,78.8c0,1.2,0,2.3,0.1,3.5c1.4,0.9,2.8,1.8,4.3,2.8c17.8-4.3,31.3-14.8,35.2-26.7L107,58l2.3,0.3
		c1.1-3.2,1.4-6.5,1-9.8c-0.4-3.2-1.6-6.3-3.5-9.1l-0.3,0.1l0.3-0.1c-2.9-4.3-7.4-8.1-13.2-10.9C86.2,24.9,77.3,23,68,23
		c-2.8,0-5.7,0.2-8.6,0.5c0.9,1.9,1.7,3.9,2.5,6.1C66.5,42.7,69.3,60.2,69.7,78.8z"/>
	<path class="st1" d="M29.5,90.5c-1.9-2.4-3.5-4.6-4.8-6.7c0.7,16.6,3.4,32.1,7.5,43.8c4.1,11.5,9.4,18.4,14.3,18.4c0,0,0.1,0,0.1,0
		c4.9-0.1,10-7.2,13.5-19c0.7-2.3,1.3-4.8,1.9-7.4c-0.7-0.5-1.4-1-2-1.4C47.5,109.2,36.7,99.4,29.5,90.5z"/>
	<path class="st2" d="M22.2,69.3c0.6-0.9,1.4-1.5,2.4-2c0.4-12.1,2-23.3,4.4-32.6c-1.9,1.4-3.7,2.8-5.3,4.4
		c-2.2,10.3-3.4,22.3-3.4,34.9c0.2,0.3,0.5,0.5,0.7,0.8C20.8,72.6,21.2,70.8,22.2,69.3z"/>
	<path class="st2" d="M67.2,90.5c-0.6,0.1-1.1,0.1-1.6,0.2c-0.3,8.7-1.1,17-2.5,24.4c1.3,0.9,2.5,1.8,3.8,2.6
		c1.6-8.3,2.6-17.7,2.9-27.6C68.9,90.3,68,90.4,67.2,90.5z"/>
	<path class="st2" d="M66.6,86.4c0.5-0.1,1.1-0.2,1.6-0.2c-0.9-0.6-1.7-1.1-2.6-1.6c0,0.7,0,1.3,0,2C65.9,86.5,66.3,86.4,66.6,86.4z
		"/>
	<path class="st2" d="M43.4,12.7c0,0,0.1,0,0.1,0c3.1,0,6.3,2.7,9.4,7.6c1.5-0.3,2.9-0.5,4.4-0.7c-1.1-1.9-2.2-3.7-3.4-5.1
		c-3.3-4-6.9-6.1-10.6-6C39.6,8.6,36.1,10.8,33,15c-2.7,3.7-5.2,9-7.1,15.6c-0.2,0.5-0.3,1.1-0.5,1.6c1.7-1.3,3.6-2.5,5.5-3.7
		C34.4,18.6,39,12.8,43.4,12.7z"/>
	<path class="st2" d="M60.2,127c-3.6,11.8-8.6,18.9-13.5,19c0,0-0.1,0-0.1,0c-4.9,0-10.2-6.8-14.3-18.4c-4.2-11.7-6.8-27.2-7.5-43.8
		c-0.3-0.5-0.6-1.1-0.9-1.6c-1.2-0.8-2.3-1.7-3.4-2.5c0,0.1,0,0.1,0,0.2c0.5,18.6,3.3,36,7.9,49.1c2.3,6.5,5,11.6,7.9,15.2
		c3.2,4,6.7,6,10.4,6c0.1,0,0.2,0,0.2,0c3.7-0.1,7.2-2.3,10.3-6.5c2.7-3.7,5.2-9,7.1-15.6c0.6-1.9,1.1-3.9,1.6-6
		c-1.2-0.8-2.5-1.7-3.7-2.5C61.5,122.2,60.9,124.7,60.2,127z"/>
	<path class="st2" d="M65.6,78.9c0,0.3,0,0.5,0,0.8c1.4,0.8,2.8,1.7,4.2,2.6c0-1.1,0-2.3-0.1-3.5c-0.5-18.6-3.3-36-7.9-49.1
		c-0.8-2.2-1.6-4.2-2.5-6.1c-0.5,0.1-0.9,0.1-1.4,0.2c-1,0.1-2,0.3-3,0.5c1,2.1,2,4.3,2.9,6.9C62.4,43.7,65.1,60.7,65.6,78.9z"/>
	<path class="st2" d="M69.8,85.9c1.4-0.3,2.9-0.6,4.3-0.9c-1.4-0.9-2.9-1.9-4.3-2.8C69.8,83.4,69.8,84.7,69.8,85.9z"/>
	<path class="st2" d="M111.3,117.2c-7.2-8.8-18-18.6-30.6-27.7c-0.7-0.5-1.4-1-2-1.4c-1.8,0.5-3.6,1-5.4,1.4c1.6,1.1,3.3,2.3,5,3.5
		c27.7,19.9,40.2,38.5,36.9,43.1c-1.4,1.9-6.7,2.5-17.6-1.6c-9.1-3.4-19.9-9.2-30.8-16.6c-0.3,1.5-0.6,3-1,4.4
		c10.7,7.1,21.2,12.8,30.3,16.2c5.8,2.2,10.7,3.3,14.5,3.3c3.7,0,6.4-1.1,7.9-3.2C121.6,134.1,119.1,126.8,111.3,117.2z"/>
	<path class="st2" d="M25.6,71.7c0.7-1,2.2-1.5,4.4-1.5c6.6,0,19.5,4.5,35.6,14.3c0-1.6,0-3.3,0-4.9c-7.4-4.4-14.5-7.9-20.9-10.3
		c-9.3-3.5-16.1-4.2-20-2.1c-0.1,3.4-0.2,6.9-0.1,10.5c0.8,0.6,1.6,1.2,2.5,1.7C25.1,75.8,24.6,73.1,25.6,71.7z"/>
	<path class="st2" d="M31.7,86.5c-0.8-0.3-1.7-0.7-2.4-1.1c-1.6-0.8-3.1-1.6-4.6-2.5c0,0.3,0,0.7,0,1c1.3,2.1,2.9,4.3,4.8,6.7
		c7.2,8.8,18,18.6,30.6,27.7c0.7,0.5,1.4,1,2,1.4c0.3-1.5,0.6-3,0.9-4.5c-0.2-0.1-0.3-0.2-0.5-0.3C48,104.4,37.7,94.4,31.7,86.5z"/>
	<path class="st2" d="M24.6,67.3c-1,0.5-1.8,1.2-2.4,2c-1,1.5-1.4,3.3-1.2,5.4c1.1,1.1,2.2,2.1,3.5,3C24.5,74.2,24.5,70.7,24.6,67.3
		z"/>
	<path class="st2" d="M63,115.1c-0.3,1.5-0.6,3-0.9,4.5c1.2,0.9,2.5,1.7,3.7,2.5c0.3-1.4,0.7-2.9,1-4.4
		C65.5,116.9,64.3,116,63,115.1z"/>
	<path class="st2" d="M65.6,79.6c0,1.6,0,3.3,0,4.9c0.9,0.5,1.7,1.1,2.6,1.6c0.5-0.1,1.1-0.2,1.6-0.3c0-1.2,0-2.4,0-3.7
		C68.4,81.3,67,80.5,65.6,79.6z"/>
	<path class="st2" d="M23.8,82.3c0.3,0.5,0.6,1,0.9,1.6c0-0.3,0-0.7,0-1C24.4,82.7,24.1,82.5,23.8,82.3z"/>
	<path class="st2" d="M27,79.4c1.1,2.1,2.6,4.5,4.7,7.1c7.4,3.1,16,4.8,24.9,4.8c2.9,0,5.9-0.2,8.9-0.5c0-1.4,0.1-2.8,0.1-4.2
		C50.6,88.4,36.6,85.5,27,79.4z"/>
	<path class="st2" d="M52.9,20.3c-8,1.6-15.5,4.4-21.9,8.1c-0.4,1.1-0.7,2.1-1.1,3.3c-0.3,0.9-0.6,1.9-0.8,2.9
		C36,29.7,45,26,55,24.2C54.3,22.8,53.6,21.5,52.9,20.3z"/>
	<path class="st2" d="M14.3,61.6c-1.1-8,2.6-16,9.4-22.6c0.5-2.4,1.1-4.7,1.7-6.9c-1.1,0.8-2.2,1.7-3.2,2.6
		c-9.1,8.1-13.4,17.8-12.1,27.5c0.9,6.7,4.5,12.7,10.2,17.6c0-2-0.1-3.9-0.1-5.8C17.1,70.4,14.9,66.2,14.3,61.6z"/>
	<path class="st2" d="M68,23c9.3,0,18.2,1.9,25.5,5.4c5.9,2.9,10.4,6.6,13.2,10.9l4-1.6c-3.3-5.3-8.5-9.8-15.4-13.1
		c-10.7-5.2-24.2-7-37.9-5.1c0,0,0,0-0.1,0c0.7,1.2,1.4,2.6,2,4C62.3,23.2,65.2,23,68,23z"/>
	<path class="st2" d="M74.1,85c1.5,1,3,2,4.6,3.1c9.2-2.7,17.3-7.1,23.7-12.7c5.7-5,9.5-10.7,11.2-16.6l-4.2-0.5
		C105.4,70.2,91.8,80.6,74.1,85z"/>
	<path class="st2" d="M69.7,90.1c1.2-0.2,2.4-0.4,3.5-0.7c-1.2-0.8-2.3-1.6-3.5-2.3C69.8,88.2,69.7,89.2,69.7,90.1z"/>
	<path class="st2" d="M29.1,34.6c0.3-1,0.5-2,0.8-2.9c0.3-1.1,0.7-2.2,1.1-3.3c-1.9,1.1-3.8,2.4-5.5,3.7c-0.6,2.2-1.2,4.5-1.7,6.9
		C25.3,37.5,27.1,36,29.1,34.6z"/>
	<path class="st2" d="M21,74.7c-0.2-0.3-0.5-0.5-0.7-0.8c0,1.9,0,3.9,0.1,5.8c1.1,0.9,2.2,1.7,3.4,2.5C22.2,79.4,21.3,76.9,21,74.7z
		"/>
	<path class="st2" d="M55,24.2c1-0.2,2-0.3,3-0.5c0.5-0.1,0.9-0.1,1.4-0.2c-0.6-1.4-1.3-2.7-2-4c-1.5,0.2-3,0.5-4.4,0.7
		C53.6,21.5,54.3,22.8,55,24.2z"/>
	<path class="st2" d="M66.6,86.4c-0.3,0-0.7,0.1-1,0.1c0,1.4-0.1,2.8-0.1,4.2c0.5-0.1,1.1-0.1,1.6-0.2c0.9-0.1,1.7-0.2,2.6-0.4
		c0-1,0.1-2,0.1-3c-0.5-0.3-1.1-0.7-1.6-1C67.7,86.2,67.1,86.3,66.6,86.4z"/>
	<path class="st2" d="M24.5,77.7c0,0.7,0,1.4,0,2.1c0,1,0.1,2,0.1,3c1.4,0.9,2.9,1.8,4.6,2.5c0.8,0.4,1.6,0.7,2.4,1.1
		c-2-2.6-3.6-5-4.7-7.1C26.1,78.9,25.3,78.3,24.5,77.7z"/>
	<path class="st2" d="M69.8,85.9c0,0.4,0,0.9,0,1.3c1.1,0.7,2.3,1.5,3.5,2.3c1.8-0.4,3.6-0.9,5.4-1.4c-1.5-1.1-3-2.1-4.6-3.1
		C72.7,85.3,71.2,85.6,69.8,85.9z"/>
	<path class="st2" d="M69.8,87.2c0-0.4,0-0.9,0-1.3c-0.5,0.1-1.1,0.2-1.6,0.3C68.7,86.5,69.2,86.8,69.8,87.2z"/>
	<path class="st2" d="M24.6,79.9c0-0.7,0-1.4,0-2.1c-1.3-0.9-2.4-2-3.5-3c0.2,2.2,1.2,4.7,2.7,7.6c0.3,0.2,0.6,0.4,0.9,0.6
		C24.6,81.9,24.6,80.9,24.6,79.9z"/>
</g>
</svg>
