<?xml version="1.0" encoding="utf-8"?>
<!-- Generator: Adobe Illustrator 23.0.3, SVG Export Plug-In . SVG Version: 6.00 Build 0)  -->
<svg version="1.1" id="Layer_1" xmlns="http://www.w3.org/2000/svg" xmlns:xlink="http://www.w3.org/1999/xlink" x="0px" y="0px"
	 width="646px" height="161px" viewBox="0 0 646 161" style="enable-background:new 0 0 646 161;" xml:space="preserve">
<style type="text/css">
	.st0{enable-background:new    ;}
	.st1{fill:#FFFFFF;}
	.st2{fill:none;stroke:#FFFFFF;stroke-width:4;stroke-miterlimit:10;}
	.st3{fill:none;}
</style>
<g class="st0">
	<path class="st1" d="M178.9,28.4h3.8V36h-3.8c-2.1,0-4,0.5-5.7,1.4c-4.3,2.3-6.4,6.8-6.5,13.2v0.6v3.8v15.2v3.8h-7.6v-3.8V55.1
		v-3.8c0-0.2,0-0.3,0-0.5V32.2v-3.8h7.6v3.8v0.2C170.1,29.8,174.1,28.5,178.9,28.4z"/>
</g>
<g class="st0">
	<path class="st1" d="M196.3,35.7c4.1-4.9,9.2-7.3,15.3-7.3c4.9,0,9.4,1.7,13.3,5.2v-1.4v-3.8h7.6v3.8v19v19v3.8H225v-3.8v-1.4
		c-3.9,3.4-8.3,5.2-13.3,5.2c-5.1,0-9.7-1.8-13.6-5.5c-4.9-4.5-7.3-10.3-7.3-17.3C190.7,45.3,192.6,40.1,196.3,35.7z M201.1,60.5
		c2.7,4,6.2,6,10.6,6c3,0,5.6-1,8-3c3.6-3.1,5.3-7.2,5.3-12.2c0-3.4-0.9-6.4-2.8-9.2c-2.7-4-6.2-6-10.6-6c-3,0-5.6,1-8,3
		c-3.6,3.1-5.3,7.2-5.3,12.2C198.3,54.6,199.2,57.7,201.1,60.5z"/>
	<path class="st1" d="M287,74.2h-7.5l-0.1-3.8l-0.1-22.3c0-2.5-0.6-4.8-1.8-6.9c-2.1-3.5-5-5.2-8.7-5.2c-2.2,0-4.1,0.7-5.9,2.1
		c-3,2.4-4.6,5.7-4.6,10v3.8v18.4v3.8h-7.6v-3.8V51.9v-3.8V32.2v-3.8h7.6V32c3.1-2.3,6.6-3.6,10.5-3.6c4.2,0,8,1.5,11.3,4.4
		c4.5,3.9,6.8,9,6.8,15.3v22.2L287,74.2z"/>
</g>
<g class="st0">
	<path class="st1" d="M307.7,35.7c4.1-4.9,9.2-7.3,15.3-7.3c4.9,0,9.4,1.7,13.3,5.2V9.4V5.6h7.6v3.8v41.9v19v3.8h-7.6v-3.8v-1.4
		c-3.9,3.4-8.3,5.2-13.3,5.2c-5.1,0-9.7-1.8-13.6-5.5c-4.9-4.5-7.3-10.3-7.3-17.3C302.1,45.3,304,40.1,307.7,35.7z M312.5,60.5
		c2.7,4,6.2,6,10.6,6c3,0,5.6-1,8-3c3.6-3.1,5.3-7.2,5.3-12.2c0-3.4-0.9-6.4-2.8-9.2c-2.7-4-6.2-6-10.6-6c-3,0-5.6,1-8,3
		c-3.6,3.1-5.3,7.2-5.3,12.2C309.7,54.6,310.6,57.7,312.5,60.5z"/>
</g>
<g class="st0">
	<path class="st1" d="M364.2,35.7c4.1-4.9,9.2-7.3,15.3-7.3c5.1,0,9.7,1.8,13.6,5.5c4.9,4.5,7.3,10.3,7.3,17.3
		c0,6-1.9,11.1-5.6,15.5c-4.1,4.9-9.2,7.3-15.3,7.3c-5.1,0-9.7-1.8-13.6-5.5c-4.9-4.5-7.3-10.3-7.3-17.3
		C358.6,45.3,360.5,40.1,364.2,35.7z M369,60.5c2.7,4,6.2,6,10.6,6c3,0,5.6-1,8-3c3.6-3.1,5.3-7.2,5.3-12.2c0-3.4-0.9-6.4-2.8-9.2
		c-2.7-4-6.2-6-10.6-6c-3,0-5.6,1-8,3c-3.6,3.1-5.3,7.2-5.3,12.2C366.2,54.6,367.1,57.7,369,60.5z"/>
	<path class="st1" d="M445.1,34.9c3.4-4.3,7.7-6.5,12.9-6.5c3.9,0,7.4,1.3,10.5,3.9c4.3,3.7,6.5,8.5,6.5,14.4v23.6l0.1,3.9h-7.5
		l-0.1-3.8l-0.1-23.7c0-2-0.5-4-1.4-5.8c-1.8-3.2-4.5-4.9-7.9-4.9c-1.8,0-3.6,0.6-5.1,1.7c-2.8,2.1-4.2,5.1-4.2,8.9v3.8v19.8
		l0.1,3.9h-7.5l-0.1-3.8l-0.1-19.9v-3.8c0-2-0.5-4-1.4-5.8c-1.8-3.2-4.5-4.9-7.9-4.9c-1.8,0-3.6,0.6-5.1,1.7
		c-2.8,2.1-4.2,5.1-4.2,8.9v3.8v19.8v3.8h-7.6v-3.8V50.5v-3.8V32.2v-3.8h7.6v3c2.8-2,5.9-3,9.3-3c5.2,0.1,9.6,2.3,13.1,6.7
		C445,35.1,445.1,35,445.1,34.9z"/>
</g>
<g class="st0">
	<path class="st1" d="M492.5,22.6V15h3.8h0.1h3.8v7.6h-3.8h-0.1H492.5z M492.5,28.4h7.6v3.8v38.1v3.8h-7.6v-3.8V32.2V28.4z"/>
</g>
<g class="st0">
	<path class="st1" d="M514.1,36v-7.6h3.8h23.3h3.8h3.2l-3.9,5.9l-21.1,32.2h19.6h3.8v7.6h-3.8h-26.6h-3.8h-3.2l3.9-5.9L534.2,36
		h-16.3H514.1z"/>
	<path class="st1" d="M595.9,65.2c-4.4,6-10.3,8.9-17.7,8.9c-5.1,0-9.7-1.8-13.7-5.5c-4.8-4.5-7.2-10.3-7.2-17.3
		c0-5.9,1.8-11,5.4-15.4c4.2-4.9,9.4-7.4,15.5-7.4c5.1,0,9.7,1.8,13.6,5.5c4.9,4.5,7.3,10.3,7.3,17.3v3.8h-3.8h-30.1
		c0.4,1.9,1.2,3.7,2.3,5.3c2.7,4.1,6.2,6.1,10.7,6.1c4.7,0,8.6-2,11.6-5.9L595.9,65.2z M591.5,47.5c0-1.8-0.9-3.8-2.6-6
		c-3-3.6-6.6-5.4-10.8-5.4c-2,0-3.8,0.5-5.6,1.4c-3.8,2-6.2,5.3-7.3,10H591.5z"/>
</g>
<g class="st0">
	<path class="st1" d="M634,28.4h3.8V36H634c-2.1,0-4,0.5-5.7,1.4c-4.3,2.3-6.4,6.8-6.5,13.2v0.6v3.8v15.2v3.8h-7.6v-3.8V55.1v-3.8
		c0-0.2,0-0.3,0-0.5V32.2v-3.8h7.6v3.8v0.2C625.2,29.8,629.2,28.5,634,28.4z"/>
</g>
<circle class="st2" cx="110.4" cy="50.7" r="10.7"/>
<polygon class="st1" points="572,117.6 572,99 572,99 572,94.4 567.3,94.4 567.3,145.5 572,145.5 572,122.3 572,122.3 "/>
<polygon class="st1" points="595,108 608.9,100.5 608.9,100.5 612.4,98.7 610.2,94.6 571.9,115.2 574.1,119.3 591.5,109.9 
	591.5,109.9 "/>
<path class="st1" d="M189.1,107.3v37.2h-4.6v-37.2c0-9.3,4.6-13.9,13.9-13.9h23.2c9.3,0,13.9,4.6,13.9,13.9v37.2h-4.6v-37.2
	c0-6.2-3.1-9.3-9.3-9.3h-23.2C192.2,98,189.1,101.1,189.1,107.3z"/>
<path class="st1" d="M295.9,93.4V98h-46.5v18.6h46.5v4.6h-46.5v18.6h46.5v4.6h-51.1V93.4H295.9z"/>
<path class="st1" d="M356.3,93.4V98h-23.2v46.5h-4.6V98h-23.2v-4.6H356.3z"/>
<path class="st1" d="M430.7,130.6V93.4h4.6v37.2c0,9.3-4.6,13.9-13.9,13.9h-9.3c-5.5,0-9.4-1.6-11.6-4.9c-2.2,3.3-6.1,4.9-11.6,4.9
	h-9.3c-9.3,0-13.9-4.6-13.9-13.9V93.4h4.6v37.2c0,6.2,3.1,9.3,9.3,9.3h9.3c6.2,0,9.3-3.1,9.3-9.3V93.4h4.6v37.2
	c0,6.2,3.1,9.3,9.3,9.3h9.3C427.6,139.9,430.7,136.8,430.7,130.6z"/>
<path class="st1" d="M458.6,93.4h23.2c9.3,0,13.9,4.6,13.9,13.9v23.2c0,9.3-4.6,13.9-13.9,13.9h-23.2c-9.3,0-13.9-4.6-13.9-13.9
	v-23.2C444.6,98,449.3,93.4,458.6,93.4z M481.8,98h-23.2c-6.2,0-9.3,3.1-9.3,9.3v23.2c0,6.2,3.1,9.3,9.3,9.3h23.2
	c6.2,0,9.3-3.1,9.3-9.3v-23.2C491.1,101.1,488,98,481.8,98z"/>
<path class="st1" d="M542.2,93.4c9.3,0,13.9,4.6,13.9,13.9c0,5.5-1.6,9.4-4.9,11.6c3.3,2.2,4.9,6.1,4.9,11.6v13.9h-4.6v-13.9
	c0-6.2-3.1-9.3-9.3-9.3h-32.5v23.2H505V93.4H542.2z M542.2,98h-32.5v18.6h32.5c6.2,0,9.3-3.1,9.3-9.3S548.4,98,542.2,98z"/>
<polygon class="st1" points="591,132.1 577,123.5 577,123.5 573.5,121.3 575.9,117.4 614.5,141.1 612.1,145 594.5,134.3 
	594.5,134.3 "/>
<rect x="571" y="115" class="st1" width="3" height="6"/>
<g>
	<path class="st3" d="M64.8,119.8c10.9,7.4,21.6,13.2,30.8,16.6c10.9,4.1,16.2,3.5,17.6,1.6c3.3-4.6-9.2-23.2-36.9-43.1
		c-1.7-1.2-3.3-2.4-5-3.5c-1.2,0.3-2.3,0.5-3.5,0.7C67.4,102,66.4,111.4,64.8,119.8z"/>
	<path class="st3" d="M54.6,93.3c-9,0-17.5-1.6-24.9-4.8c6.1,7.9,16.4,17.9,30.9,28.3c0.2,0.1,0.3,0.2,0.5,0.3
		c1.4-7.4,2.2-15.7,2.5-24.4C60.5,93.1,57.5,93.3,54.6,93.3z"/>
	<path class="st3" d="M42.7,71.4c6.4,2.4,13.5,5.9,20.9,10.3c0-0.3,0-0.5,0-0.8c-0.4-18.2-3.2-35.1-7.7-47.8
		C55,30.5,54,28.2,53,26.2C43,28,34,31.7,27.1,36.6c-2.5,9.3-4,20.5-4.4,32.6C26.6,67.2,33.4,67.9,42.7,71.4z"/>
	<path class="st3" d="M12.3,63.6c0.6,4.6,2.8,8.7,6,12.3c0-12.7,1.2-24.6,3.4-34.9C14.8,47.6,11.2,55.6,12.3,63.6z"/>
	<path class="st3" d="M23.6,73.7c-1,1.4-0.5,4.1,1.4,7.7c9.6,6.1,23.6,8.9,38.6,7.1c0-0.7,0-1.3,0-2c-16.1-9.8-29-14.3-35.6-14.3
		C25.8,72.3,24.3,72.8,23.6,73.7z"/>
	<path class="st3" d="M41.6,14.7L41.6,14.7c-4.5,0.1-9.1,5.9-12.6,15.8c6.4-3.8,13.9-6.5,21.9-8.1C47.9,17.4,44.6,14.7,41.6,14.7z"
		/>
	<path class="st3" d="M67.7,80.8c0,1.2,0,2.3,0.1,3.5c1.4,0.9,2.8,1.8,4.3,2.8c17.8-4.3,31.3-14.8,35.2-26.7L105,60l2.3,0.3
		c1.1-3.2,1.4-6.5,1-9.8c-0.4-3.2-1.6-6.3-3.5-9.1l-0.3,0.1l0.3-0.1c-2.9-4.3-7.4-8.1-13.2-10.9C84.2,26.9,75.3,25,66,25
		c-2.8,0-5.7,0.2-8.6,0.5c0.9,1.9,1.7,3.9,2.5,6.1C64.5,44.7,67.3,62.2,67.7,80.8z"/>
	<path class="st3" d="M27.5,92.5c-1.9-2.4-3.5-4.6-4.8-6.7c0.7,16.6,3.4,32.1,7.5,43.8c4.1,11.5,9.4,18.4,14.3,18.4h0.1
		c4.9-0.1,10-7.2,13.5-19c0.7-2.3,1.3-4.8,1.9-7.4c-0.7-0.5-1.4-1-2-1.4C45.5,111.2,34.7,101.4,27.5,92.5z"/>
	<path class="st1" d="M20.2,71.3c0.6-0.9,1.4-1.5,2.4-2C23,57.2,24.6,46,27,36.7c-1.9,1.4-3.7,2.8-5.3,4.4
		c-2.2,10.3-3.4,22.3-3.4,34.9c0.2,0.3,0.5,0.5,0.7,0.8C18.8,74.6,19.2,72.8,20.2,71.3z"/>
	<path class="st1" d="M65.2,92.5c-0.6,0.1-1.1,0.1-1.6,0.2c-0.3,8.7-1.1,17-2.5,24.4c1.3,0.9,2.5,1.8,3.8,2.6
		c1.6-8.3,2.6-17.7,2.9-27.6C66.9,92.3,66,92.4,65.2,92.5z"/>
	<path class="st1" d="M64.6,88.4c0.5-0.1,1.1-0.2,1.6-0.2c-0.9-0.6-1.7-1.1-2.6-1.6c0,0.7,0,1.3,0,2C63.9,88.5,64.3,88.4,64.6,88.4z
		"/>
	<path class="st1" d="M41.4,14.7L41.4,14.7c3.2,0,6.4,2.7,9.5,7.6c1.5-0.3,2.9-0.5,4.4-0.7c-1.1-1.9-2.2-3.7-3.4-5.1
		c-3.3-4-6.9-6.1-10.6-6c-3.7,0.1-7.2,2.3-10.3,6.5c-2.7,3.7-5.2,9-7.1,15.6c-0.2,0.5-0.3,1.1-0.5,1.6c1.7-1.3,3.6-2.5,5.5-3.7
		C32.4,20.6,37,14.8,41.4,14.7z"/>
	<path class="st1" d="M58.2,129c-3.6,11.8-8.6,18.9-13.5,19h-0.1c-4.9,0-10.2-6.8-14.3-18.4c-4.2-11.7-6.8-27.2-7.5-43.8
		c-0.3-0.5-0.6-1.1-0.9-1.6c-1.2-0.8-2.3-1.7-3.4-2.5c0,0.1,0,0.1,0,0.2c0.5,18.6,3.3,36,7.9,49.1c2.3,6.5,5,11.6,7.9,15.2
		c3.2,4,6.7,6,10.4,6c0.1,0,0.2,0,0.2,0c3.7-0.1,7.2-2.3,10.3-6.5c2.7-3.7,5.2-9,7.1-15.6c0.6-1.9,1.1-3.9,1.6-6
		c-1.2-0.8-2.5-1.7-3.7-2.5C59.5,124.2,58.9,126.7,58.2,129z"/>
	<path class="st1" d="M63.6,80.9c0,0.3,0,0.5,0,0.8c1.4,0.8,2.8,1.7,4.2,2.6c0-1.1,0-2.3-0.1-3.5c-0.5-18.6-3.3-36-7.9-49.1
		c-0.8-2.2-1.6-4.2-2.5-6.1c-0.5,0.1-0.9,0.1-1.4,0.2c-1,0.1-2,0.3-3,0.5c1,2.1,2,4.3,2.9,6.9C60.4,45.7,63.1,62.7,63.6,80.9z"/>
	<path class="st1" d="M67.8,87.9c1.4-0.3,2.9-0.6,4.3-0.9c-1.4-0.9-2.9-1.9-4.3-2.8C67.8,85.4,67.8,86.7,67.8,87.9z"/>
	<path class="st1" d="M109.3,119.2c-7.2-8.8-18-18.6-30.6-27.7c-0.7-0.5-1.4-1-2-1.4c-1.8,0.5-3.6,1-5.4,1.4c1.6,1.1,3.3,2.3,5,3.5
		c27.7,19.9,40.2,38.5,36.9,43.1c-1.4,1.9-6.7,2.5-17.6-1.6c-9.1-3.4-19.9-9.2-30.8-16.6c-0.3,1.5-0.6,3-1,4.4
		c10.7,7.1,21.2,12.8,30.3,16.2c5.8,2.2,10.7,3.3,14.5,3.3c3.7,0,6.4-1.1,7.9-3.2C119.6,136.1,117.1,128.8,109.3,119.2z"/>
	<path class="st1" d="M23.6,73.7c0.7-1,2.2-1.5,4.4-1.5c6.6,0,19.5,4.5,35.6,14.3c0-1.6,0-3.3,0-4.9c-7.4-4.4-14.5-7.9-20.9-10.3
		c-9.3-3.5-16.1-4.2-20-2.1c-0.1,3.4-0.2,6.9-0.1,10.5c0.8,0.6,1.6,1.2,2.5,1.7C23.1,77.8,22.6,75.1,23.6,73.7z"/>
	<path class="st1" d="M29.7,88.5c-0.8-0.3-1.7-0.7-2.4-1.1c-1.6-0.8-3.1-1.6-4.6-2.5c0,0.3,0,0.7,0,1c1.3,2.1,2.9,4.3,4.8,6.7
		c7.2,8.8,18,18.6,30.6,27.7c0.7,0.5,1.4,1,2,1.4c0.3-1.5,0.6-3,0.9-4.5c-0.2-0.1-0.3-0.2-0.5-0.3C46,106.4,35.7,96.4,29.7,88.5z"/>
	<path class="st1" d="M22.6,69.3c-1,0.5-1.8,1.2-2.4,2c-1,1.5-1.4,3.3-1.2,5.4c1.1,1.1,2.2,2.1,3.5,3C22.5,76.2,22.5,72.7,22.6,69.3
		z"/>
	<path class="st1" d="M61,117.1c-0.3,1.5-0.6,3-0.9,4.5c1.2,0.9,2.5,1.7,3.7,2.5c0.3-1.4,0.7-2.9,1-4.4
		C63.5,118.9,62.3,118,61,117.1z"/>
	<path class="st1" d="M63.6,81.6c0,1.6,0,3.3,0,4.9c0.9,0.5,1.7,1.1,2.6,1.6c0.5-0.1,1.1-0.2,1.6-0.3c0-1.2,0-2.4,0-3.7
		C66.4,83.3,65,82.5,63.6,81.6z"/>
	<path class="st1" d="M21.8,84.3c0.3,0.5,0.6,1,0.9,1.6c0-0.3,0-0.7,0-1C22.4,84.7,22.1,84.5,21.8,84.3z"/>
	<path class="st1" d="M25,81.4c1.1,2.1,2.6,4.5,4.7,7.1c7.4,3.1,16,4.8,24.9,4.8c2.9,0,5.9-0.2,8.9-0.5c0-1.4,0.1-2.8,0.1-4.2
		C48.6,90.4,34.6,87.5,25,81.4z"/>
	<path class="st1" d="M50.9,22.3c-8,1.6-15.5,4.4-21.9,8.1c-0.4,1.1-0.7,2.1-1.1,3.3c-0.3,0.9-0.6,1.9-0.8,2.9
		C34,31.7,43,28,53,26.2C52.3,24.8,51.6,23.5,50.9,22.3z"/>
	<path class="st1" d="M12.3,63.6c-1.1-8,2.6-16,9.4-22.6c0.5-2.4,1.1-4.7,1.7-6.9c-1.1,0.8-2.2,1.7-3.2,2.6
		C11.1,44.8,6.8,54.6,8.1,64.2c0.9,6.7,4.5,12.7,10.2,17.6c0-2-0.1-3.9-0.1-5.8C15.1,72.4,12.9,68.2,12.3,63.6z"/>
	<path class="st1" d="M66,25c9.3,0,18.2,1.9,25.5,5.4c5.9,2.9,10.4,6.6,13.2,10.9l4-1.6c-3.3-5.3-8.5-9.8-15.4-13.1
		c-10.7-5.2-24.2-7-37.9-5.1c0,0,0,0-0.1,0c0.7,1.2,1.4,2.6,2,4C60.3,25.2,63.2,25,66,25z"/>
	<path class="st1" d="M72.1,87c1.5,1,3,2,4.6,3.1c9.2-2.7,17.3-7.1,23.7-12.7c5.7-5,9.5-10.7,11.2-16.6l-4.2-0.5
		C103.4,72.2,89.8,82.6,72.1,87z"/>
	<path class="st1" d="M67.7,92.1c1.2-0.2,2.4-0.4,3.5-0.7c-1.2-0.8-2.3-1.6-3.5-2.3C67.8,90.2,67.7,91.2,67.7,92.1z"/>
	<path class="st1" d="M27.1,36.6c0.3-1,0.5-2,0.8-2.9c0.3-1.1,0.7-2.2,1.1-3.3c-1.9,1.1-3.8,2.4-5.5,3.7c-0.6,2.2-1.2,4.5-1.7,6.9
		C23.3,39.5,25.1,38,27.1,36.6z"/>
	<path class="st1" d="M19,76.7c-0.2-0.3-0.5-0.5-0.7-0.8c0,1.9,0,3.9,0.1,5.8c1.1,0.9,2.2,1.7,3.4,2.5C20.2,81.4,19.3,78.9,19,76.7z
		"/>
	<path class="st1" d="M53,26.2c1-0.2,2-0.3,3-0.5c0.5-0.1,0.9-0.1,1.4-0.2c-0.6-1.4-1.3-2.7-2-4c-1.5,0.2-3,0.5-4.4,0.7
		C51.6,23.5,52.3,24.8,53,26.2z"/>
	<path class="st1" d="M64.6,88.4c-0.3,0-0.7,0.1-1,0.1c0,1.4-0.1,2.8-0.1,4.2c0.5-0.1,1.1-0.1,1.6-0.2c0.9-0.1,1.7-0.2,2.6-0.4
		c0-1,0.1-2,0.1-3c-0.5-0.3-1.1-0.7-1.6-1C65.7,88.2,65.1,88.3,64.6,88.4z"/>
	<path class="st1" d="M22.5,79.7c0,0.7,0,1.4,0,2.1c0,1,0.1,2,0.1,3c1.4,0.9,2.9,1.8,4.6,2.5c0.8,0.4,1.6,0.7,2.4,1.1
		c-2-2.6-3.6-5-4.7-7.1C24.1,80.9,23.3,80.3,22.5,79.7z"/>
	<path class="st1" d="M67.8,87.9c0,0.4,0,0.9,0,1.3c1.1,0.7,2.3,1.5,3.5,2.3c1.8-0.4,3.6-0.9,5.4-1.4c-1.5-1.1-3-2.1-4.6-3.1
		C70.7,87.3,69.2,87.6,67.8,87.9z"/>
	<path class="st1" d="M67.8,89.2c0-0.4,0-0.9,0-1.3c-0.5,0.1-1.1,0.2-1.6,0.3C66.7,88.5,67.2,88.8,67.8,89.2z"/>
	<path class="st1" d="M22.6,81.9c0-0.7,0-1.4,0-2.1c-1.3-0.9-2.4-2-3.5-3c0.2,2.2,1.2,4.7,2.7,7.6c0.3,0.2,0.6,0.4,0.9,0.6
		C22.6,83.9,22.6,82.9,22.6,81.9z"/>
</g>
</svg>
