<svg id="Layer_1" data-name="Layer 1" xmlns="http://www.w3.org/2000/svg" viewBox="0 0 115.11 141.73"><title>logo-icon</title><circle cx="102.45" cy="40.2" r="10.66" style="fill:none;stroke:#000;stroke-miterlimit:10;stroke-width:4px"/><path d="M66.78,117.77c10.85,7.39,21.64,13.23,30.76,16.64,10.89,4.05,16.23,3.46,17.59,1.56,3.28-4.57-9.17-23.16-36.9-43q-2.53-1.82-5-3.47c-1.17.25-2.35.49-3.54.69A170.8,170.8,0,0,1,66.78,117.77Z" transform="translate(-9.91 -8.5)" style="fill:none"/><path d="M56.6,91.26a64.33,64.33,0,0,1-24.94-4.75c6.08,7.87,16.39,17.9,30.87,28.29l.49.34A168.53,168.53,0,0,0,65.5,90.73,76.68,76.68,0,0,1,56.6,91.26Z" transform="translate(-9.91 -8.5)" style="fill:none"/><path d="M44.68,69.39A134.77,134.77,0,0,1,65.57,79.64c0-.26,0-.52,0-.78-.44-18.15-3.17-35.13-7.68-47.81A66.41,66.41,0,0,0,55,24.19,64.73,64.73,0,0,0,29.09,34.63a150.26,150.26,0,0,0-4.45,32.63C28.57,65.22,35.38,65.92,44.68,69.39Z" transform="translate(-9.91 -8.5)" style="fill:none"/><path d="M14.29,61.64a22.61,22.61,0,0,0,6,12.29A173.18,173.18,0,0,1,23.74,39C16.85,45.61,13.19,53.6,14.29,61.64Z" transform="translate(-9.91 -8.5)" style="fill:none"/><path d="M25.63,71.74c-1,1.39-.54,4.07,1.35,7.68,9.59,6.06,23.58,9,38.62,7.09,0-.66,0-1.31,0-2C49.54,74.73,36.66,70.27,30.05,70.27,27.83,70.27,26.32,70.77,25.63,71.74Z" transform="translate(-9.91 -8.5)" style="fill:none"/><path d="M43.56,12.68h-.13c-4.43.1-9,5.94-12.45,15.76a70.31,70.31,0,0,1,21.94-8.12C49.9,15.42,46.64,12.68,43.56,12.68Z" transform="translate(-9.91 -8.5)" style="fill:none"/><path d="M69.74,78.76c0,1.16.05,2.31.06,3.46q2.13,1.32,4.27,2.75c17.78-4.34,31.33-14.81,35.25-26.68L107,58l2.32.29a21.25,21.25,0,0,0-2.54-18.9l-.28.11.28-.11c-2.88-4.34-7.37-8.08-13.24-10.94A58.93,58.93,0,0,0,68,23a74.43,74.43,0,0,0-8.63.53c.85,1.87,1.68,3.9,2.46,6.09C66.47,42.73,69.29,60.18,69.74,78.76Z" transform="translate(-9.91 -8.5)" style="fill:none"/><path d="M29.49,90.54a62.88,62.88,0,0,1-4.79-6.66c.72,16.63,3.36,32.06,7.54,43.8C36.34,139.19,41.68,146,46.56,146h.12c4.91-.12,10-7.24,13.53-19,.7-2.32,1.34-4.78,1.91-7.36l-2-1.43C47.53,109.19,36.67,99.37,29.49,90.54Z" transform="translate(-9.91 -8.5)" style="fill:none"/><path d="M22.23,69.3a6.67,6.67,0,0,1,2.41-2,150.26,150.26,0,0,1,4.45-32.63A46,46,0,0,0,23.74,39a173.18,173.18,0,0,0-3.42,34.92c.23.26.47.52.72.77A7.49,7.49,0,0,1,22.23,69.3Z" transform="translate(-9.91 -8.5)"/><path d="M67.15,90.54l-1.65.19A168.53,168.53,0,0,1,63,115.14c1.25.9,2.51,1.77,3.76,2.63a170.8,170.8,0,0,0,2.93-27.63C68.86,90.29,68,90.42,67.15,90.54Z" transform="translate(-9.91 -8.5)"/><path d="M66.58,86.39c.55-.07,1.08-.16,1.62-.25-.87-.55-1.73-1.08-2.59-1.6,0,.66,0,1.31,0,2C65.93,86.47,66.26,86.44,66.58,86.39Z" transform="translate(-9.91 -8.5)"/><path d="M43.43,12.69h.13c3.08,0,6.34,2.74,9.36,7.65,1.46-.29,2.94-.54,4.43-.75a35,35,0,0,0-3.42-5.12c-3.3-4-6.87-6.05-10.6-6S36.14,10.77,33,15c-2.75,3.72-5.15,9-7.14,15.55-.16.53-.31,1.07-.47,1.61A58.65,58.65,0,0,1,31,28.45C34.45,18.63,39,12.79,43.43,12.69Z" transform="translate(-9.91 -8.5)"/><path d="M60.21,127c-3.56,11.81-8.62,18.93-13.53,19h-.12c-4.88,0-10.22-6.85-14.32-18.36-4.18-11.74-6.82-27.17-7.54-43.8-.33-.53-.64-1.06-.92-1.57a39.29,39.29,0,0,1-3.41-2.55,1.34,1.34,0,0,0,0,.2c.45,18.59,3.26,36,7.92,49.12,2.31,6.49,5,11.6,7.89,15.18,3.23,4,6.71,6,10.35,6h.24c3.73-.09,7.2-2.27,10.3-6.47,2.75-3.72,5.15-8.95,7.14-15.55.58-1.92,1.11-3.94,1.61-6-1.24-.83-2.48-1.67-3.71-2.54C61.55,122.21,60.91,124.67,60.21,127Z" transform="translate(-9.91 -8.5)"/><path d="M65.56,78.86c0,.26,0,.52,0,.78q2.1,1.24,4.23,2.58c0-1.15,0-2.3-.06-3.46-.45-18.58-3.27-36-7.92-49.12-.78-2.19-1.61-4.22-2.46-6.09-.46.06-.91.1-1.37.17-1,.13-2,.3-3,.47a66.41,66.41,0,0,1,2.86,6.86C62.39,43.73,65.12,60.71,65.56,78.86Z" transform="translate(-9.91 -8.5)"/><path d="M69.8,85.87c1.44-.26,2.87-.56,4.27-.9q-2.14-1.43-4.27-2.75C69.81,83.44,69.81,84.66,69.8,85.87Z" transform="translate(-9.91 -8.5)"/><path d="M111.26,117.17c-7.17-8.82-18-18.65-30.59-27.65-.68-.49-1.36-1-2-1.45q-2.64.78-5.37,1.38,2.44,1.65,5,3.47C106,112.81,118.41,131.4,115.13,136c-1.36,1.9-6.7,2.49-17.59-1.56-9.12-3.41-19.91-9.25-30.76-16.64-.3,1.5-.62,3-1,4.4C76.48,129.3,87.05,135,96.08,138.33c5.85,2.18,10.72,3.27,14.51,3.27s6.42-1.07,7.94-3.19C121.6,134.14,119.09,126.79,111.26,117.17Z" transform="translate(-9.91 -8.5)"/><path d="M25.63,71.74c.69-1,2.2-1.47,4.42-1.47,6.61,0,19.49,4.46,35.56,14.27,0-1.62,0-3.26,0-4.9A134.77,134.77,0,0,0,44.68,69.39c-9.3-3.47-16.11-4.17-20-2.13q-.2,5.14-.12,10.47c.79.59,1.61,1.15,2.46,1.69C25.09,75.81,24.63,73.13,25.63,71.74Z" transform="translate(-9.91 -8.5)"/><path d="M31.66,86.51c-.83-.35-1.65-.71-2.45-1.09a45.93,45.93,0,0,1-4.55-2.55c0,.34,0,.67,0,1a62.88,62.88,0,0,0,4.79,6.66c7.18,8.83,18,18.65,30.6,27.66l2,1.43c.32-1.46.62-3,.9-4.49l-.49-.34C48.05,104.41,37.74,94.38,31.66,86.51Z" transform="translate(-9.91 -8.5)"/><path d="M24.64,67.26a6.67,6.67,0,0,0-2.41,2A7.49,7.49,0,0,0,21,74.7a31.11,31.11,0,0,0,3.48,3Q24.45,72.41,24.64,67.26Z" transform="translate(-9.91 -8.5)"/><path d="M63,115.14c-.28,1.53-.58,3-.9,4.49,1.23.87,2.47,1.71,3.71,2.54.33-1.43.65-2.9,1-4.4C65.53,116.91,64.27,116,63,115.14Z" transform="translate(-9.91 -8.5)"/><path d="M65.57,79.64c0,1.64.05,3.28,0,4.9.86.52,1.72,1,2.59,1.6.53-.08,1.07-.17,1.6-.27,0-1.21,0-2.43,0-3.65Q67.67,80.88,65.57,79.64Z" transform="translate(-9.91 -8.5)"/><path d="M23.78,82.31c.28.51.59,1,.92,1.57,0-.34,0-.67,0-1C24.36,82.69,24.07,82.5,23.78,82.31Z" transform="translate(-9.91 -8.5)"/><path d="M27,79.42a49.68,49.68,0,0,0,4.68,7.09A64.33,64.33,0,0,0,56.6,91.26a76.68,76.68,0,0,0,8.9-.53c0-1.39.08-2.8.1-4.22C50.56,88.37,36.57,85.48,27,79.42Z" transform="translate(-9.91 -8.5)"/><path d="M52.92,20.33A70.31,70.31,0,0,0,31,28.45c-.37,1.05-.73,2.14-1.08,3.28-.28.94-.55,1.91-.81,2.9A64.73,64.73,0,0,1,55,24.19,42.94,42.94,0,0,0,52.92,20.33Z" transform="translate(-9.91 -8.5)"/><path d="M14.29,61.64c-1.1-8,2.56-16,9.45-22.63.51-2.39,1.08-4.69,1.69-6.88-1.1.83-2.16,1.69-3.17,2.59C13.12,42.8,8.82,52.57,10.15,62.2c.91,6.7,4.47,12.72,10.22,17.56,0-2-.06-3.9-.05-5.83A22.61,22.61,0,0,1,14.29,61.64Z" transform="translate(-9.91 -8.5)"/><path d="M68,23a58.93,58.93,0,0,1,25.55,5.43c5.87,2.86,10.36,6.6,13.24,10.94l4-1.59c-3.27-5.27-8.5-9.76-15.39-13.11-10.69-5.19-24.16-7-37.94-5.12h-.07c.69,1.23,1.36,2.55,2,4A74.43,74.43,0,0,1,68,23Z" transform="translate(-9.91 -8.5)"/><path d="M74.07,85c1.52,1,3,2,4.55,3.1a62.62,62.62,0,0,0,23.7-12.68c5.67-5,9.47-10.69,11.23-16.57l-4.23-.53C105.4,70.16,91.85,80.63,74.07,85Z" transform="translate(-9.91 -8.5)"/><path d="M69.71,90.14c1.19-.2,2.37-.44,3.54-.69-1.17-.79-2.33-1.56-3.48-2.3C69.76,88.15,69.74,89.15,69.71,90.14Z" transform="translate(-9.91 -8.5)"/><path d="M29.09,34.63c.26-1,.53-2,.81-2.9.35-1.14.71-2.23,1.08-3.28a58.65,58.65,0,0,0-5.55,3.68c-.61,2.19-1.18,4.49-1.69,6.88A46,46,0,0,1,29.09,34.63Z" transform="translate(-9.91 -8.5)"/><path d="M21,74.7c-.25-.25-.49-.51-.72-.77,0,1.93,0,3.87.05,5.83a39.29,39.29,0,0,0,3.41,2.55A20.83,20.83,0,0,1,21,74.7Z" transform="translate(-9.91 -8.5)"/><path d="M55,24.19c1-.17,2-.34,3-.47.46-.07.91-.11,1.37-.17-.65-1.42-1.32-2.74-2-4-1.49.21-3,.46-4.43.75A42.94,42.94,0,0,1,55,24.19Z" transform="translate(-9.91 -8.5)"/><path d="M66.58,86.39c-.32,0-.65.08-1,.12,0,1.42,0,2.83-.1,4.22l1.65-.19c.86-.12,1.71-.25,2.56-.4,0-1,.05-2,.06-3l-1.57-1C67.66,86.23,67.13,86.32,66.58,86.39Z" transform="translate(-9.91 -8.5)"/><path d="M24.52,77.73c0,.71,0,1.42,0,2.13,0,1,.06,2,.1,3a45.93,45.93,0,0,0,4.55,2.55c.8.38,1.62.74,2.45,1.09A49.68,49.68,0,0,1,27,79.42C26.13,78.88,25.31,78.32,24.52,77.73Z" transform="translate(-9.91 -8.5)"/><path d="M69.8,85.87l0,1.28c1.15.74,2.31,1.51,3.48,2.3q2.73-.6,5.37-1.38C77.1,87,75.59,86,74.07,85,72.67,85.31,71.24,85.61,69.8,85.87Z" transform="translate(-9.91 -8.5)"/><path d="M69.77,87.15l0-1.28c-.53.1-1.07.19-1.6.27Z" transform="translate(-9.91 -8.5)"/><path d="M24.56,79.86c0-.71,0-1.42,0-2.13a31.11,31.11,0,0,1-3.48-3,20.83,20.83,0,0,0,2.74,7.61c.29.19.58.38.88.56C24.62,81.87,24.58,80.87,24.56,79.86Z" transform="translate(-9.91 -8.5)"/></svg>