<?xml version="1.0" encoding="utf-8"?>
<!-- Generator: Adobe Illustrator 23.0.3, SVG Export Plug-In . SVG Version: 6.00 Build 0)  -->
<svg version="1.1" id="Layer_1" xmlns="http://www.w3.org/2000/svg" xmlns:xlink="http://www.w3.org/1999/xlink" x="0px" y="0px"
	 width="635px" height="152px" viewBox="0 0 635 152" style="enable-background:new 0 0 635 152;" xml:space="preserve">
<style type="text/css">
	.st0{fill:#010101;}
	.st1{font-family:'FuturisticArmour';}
	.st2{font-size:95.1684px;}
	.st3{font-family:'Adam-Bold';}
	.st4{font-size:95.1714px;}
	.st5{letter-spacing:3;}
	.st6{font-family:'3270Narrow';}
	.st7{fill:#FFFFFF;stroke:#010101;stroke-width:4;stroke-miterlimit:10;}
</style>
<g>
	<g>
		<path class="st0" d="M39.5,149.2c-3.6,0-7.1-2-10.4-6c-2.9-3.6-5.6-8.7-7.9-15.2C16.6,115,13.8,97.5,13.4,79
			c-0.5-18.6,1.5-36.1,5.5-49.4c2-6.6,4.4-11.8,7.1-15.6c3.1-4.2,6.6-6.4,10.3-6.5c3.7-0.1,7.3,1.9,10.6,6c2.9,3.6,5.6,8.7,7.9,15.2
			c4.7,13.1,7.5,30.5,7.9,49.1c0.5,18.6-1.5,36.1-5.5,49.4c-2,6.6-4.4,11.8-7.1,15.6c-3.1,4.2-6.6,6.4-10.3,6.5
			C39.7,149.2,39.6,149.2,39.5,149.2 M36.6,11.7c0,0-0.1,0-0.1,0c-4.9,0.1-10,7.2-13.5,19c-3.9,12.9-5.8,30-5.3,48.1
			C18,97,20.7,114,25.2,126.7c4.1,11.5,9.4,18.4,14.3,18.4c0,0,0.1,0,0.1,0c4.9-0.1,10-7.2,13.5-19c3.9-12.9,5.8-30,5.3-48.1
			c-0.4-18.2-3.2-35.1-7.7-47.8C46.8,18.5,41.4,11.7,36.6,11.7"/>
		<path class="st0" d="M103.6,140.6c-3.8,0-8.7-1.1-14.5-3.3c-10.7-4-23.4-11.1-36-20.1c-12.6-9-23.4-18.8-30.6-27.7
			c-7.8-9.6-10.3-17-7.3-21.2c3.1-4.3,10.8-4.2,22.5,0.1c10.7,4,23.4,11.1,36,20.1c12.6,9,23.4,18.8,30.6,27.7
			c7.8,9.6,10.3,17,7.3,21.2C110,139.5,107.3,140.6,103.6,140.6 M23.1,69.3c-2.2,0-3.7,0.5-4.4,1.5c-3.3,4.6,9.2,23.2,36.9,43.1
			c12.3,8.8,24.7,15.8,35,19.6c10.9,4.1,16.2,3.5,17.6,1.6c3.3-4.6-9.2-23.2-36.9-43.1C49.4,76.2,31.3,69.3,23.1,69.3"/>
		<path class="st0" d="M49.6,90.3c-10,0-19.5-2-27.4-5.8c-11-5.3-17.7-13.6-19.1-23.2c-1.3-9.6,3-19.4,12.1-27.5
			c8.9-7.9,21.4-13.3,35.2-15.1c13.8-1.9,27.3-0.1,37.9,5.1c11,5.3,17.7,13.6,19.1,23.2c1.3,9.6-3,19.4-12.1,27.5
			c-8.9,7.9-21.4,13.3-35.2,15.1C56.6,90,53.1,90.3,49.6,90.3 M61,22c-3.3,0-6.6,0.2-10,0.7C24.5,26.3,4.9,43.4,7.3,60.6
			C9.7,77.9,33.1,89,59.6,85.4c26.5-3.6,46.1-20.6,43.7-37.9c-1.1-8.2-7.1-15.3-16.7-20C79.2,23.9,70.3,22,61,22"/>
	</g>
	<g>
		<text transform="matrix(1 0 0 1 169.4058 141.5146)" class="st0 st1 st2">netwoR</text>
		<text transform="matrix(1 0 0 1 146.4976 71.1025)"><tspan x="0" y="0" class="st0 st3 st4 st5">r</tspan><tspan x="35.4" y="0" class="st0 st3 st4 st5">an</tspan><tspan x="146.8" y="0" class="st0 st3 st4 st5">d</tspan><tspan x="203.3" y="0" class="st0 st3 st4 st5">om</tspan><tspan x="334.8" y="0" class="st0 st3 st4 st5">i</tspan><tspan x="357.1" y="0" class="st0 st3 st4 st5">ze</tspan><tspan x="455.1" y="0" class="st0 st3 st4">r</tspan></text>
		<text transform="matrix(1 0 0 1 548.666 146.5322)" class="st0 st6 st2">K</text>
	</g>
	<circle class="st7" cx="105.4" cy="47.7" r="10.7"/>
</g>
</svg>
