<?xml version="1.0" encoding="utf-8"?>
<svg version="1.1" id="Layer_1" xmlns="http://www.w3.org/2000/svg" xmlns:xlink="http://www.w3.org/1999/xlink" x="0px" y="0px"
	 width="21px" height="16px" viewBox="0 0 21 16" style="enable-background:new 0 0 21 16;" xml:space="preserve">
<style type="text/css">
	.st0{fill:#FFFFFF;}
</style>
<path class="st0" d="M19.1,1.9l1.6-1.5V0H15L11,9.9L6.4,0h-6v0.3l1.9,2.3C2.5,2.8,2.6,3,2.6,3.3v8.9c0.1,0.3,0,0.7-0.3,0.9l-2.2,2.6
	V16h6.1v-0.3l-2.2-2.6c-0.2-0.2-0.3-0.6-0.3-0.9V4.5L9.2,16h0.6l4.6-11.5v9.2c0,0.2,0,0.3-0.2,0.4l-1.7,1.6V16h8.1v-0.3l-1.6-1.5
	c-0.1-0.1-0.2-0.3-0.2-0.4V2.3C18.9,2.2,18.9,2,19.1,1.9z"/>
</svg>
